<svg version="1.0" xmlns="http://www.w3.org/2000/svg" width="133.333" height="133.333" viewBox="0 0 100 100"><path d="M43 33c-.7 2.2-1.4 4-1.5 4-.1 0-1.6-.7-3.2-1.5-5.3-2.6-10.1.5-12.3 8.1-1.6 5.2.6 10.1 4.8 10.9 1.5.4 4.1 1.2 5.9 2l3.2 1.4 1.5-4.2c.9-2.3 3.1-8.4 5-13.5l3.4-9.3-2.4-1c-1.4-.5-2.7-.9-2.8-.9-.2 0-.9 1.8-1.6 4zm-4 9.6c0 2.3-2.8 8.4-3.9 8.4-4.4 0-5.5-4.9-2-9.4 1.7-2.1 2.4-2.4 4-1.6 1 .6 1.9 1.7 1.9 2.6zM8.9 34.2c-1.1 2-.6 2.7 5.1 8.2 6.2 5.8 6.4 5.8 7.4 3.6.9-1.9.5-2.7-2.6-5.6l-3.7-3.3 5.1-.3c4.2-.2 5.2-.7 5.9-2.6.8-2.2.7-2.2-7.6-2.2-7.7 0-8.5.2-9.6 2.2zM53 35.5c-1.1 1.3-1.1 1.9.3 3.2 2.1 2.1 4.9.9 4.5-1.9-.4-2.8-3-3.5-4.8-1.3zm-3.1 8.2c-.6 1.6-2.2 5.8-3.4 9.5L44.1 60l2.5.6c1.4.4 2.6.5 2.8.3.2-.2 1.7-4.2 3.5-8.9 2.9-7.9 3-8.6 1.4-9.8-2.5-1.8-3.2-1.5-4.4 1.5zm7.8 9.6c-.2 5.6-.2 10.5.2 10.8.3.4 1.5.9 2.6 1.3 1.6.5 3.3-1 8.4-7.5 5-6.4 6.1-8.3 5-9-2.6-1.6-3.9-.9-7.5 4.1-2 2.7-3.7 5-3.7 5-.1 0-.2-3-.2-6.6 0-5.9-.3-6.7-2.1-7.4-2.1-.8-2.2-.5-2.7 9.3zM77 53c-1 2-.8 2.5 2.2 5.1 1.8 1.5 3.8 2.9 4.3 3 .6.1-1.4.5-4.4.8-4.4.5-5.5 1-6.2 2.8-.8 2.2-.7 2.3 5.9 2.3 3.7 0 7.7-.3 8.9-.6 3.5-.9 3.5-3.9-.1-7-1.7-1.5-4.5-4-6.3-5.6l-3.1-3L77 53z"/></svg>