<?xml version="1.0" standalone="no"?>
<!DOCTYPE svg PUBLIC "-//W3C//DTD SVG 20010904//EN"
 "http://www.w3.org/TR/2001/REC-SVG-20010904/DTD/svg10.dtd">
<svg version="1.0" xmlns="http://www.w3.org/2000/svg"
 width="100.000000pt" height="100.000000pt" viewBox="0 0 100.000000 100.000000"
 preserveAspectRatio="xMidYMid meet">
<metadata>
Created by potrace 1.11, written by Peter Selinger 2001-2013
</metadata>
<g transform="translate(0.000000,100.000000) scale(0.100000,-0.100000)"
fill="#000000" stroke="none">
<path d="M430 670 c-7 -22 -14 -40 -15 -40 -1 0 -16 7 -32 15 -53 26 -101 -5
-123 -81 -16 -52 6 -101 48 -109 15 -4 41 -12 59 -20 l32 -14 15 42 c9 23 31
84 50 135 l34 93 -24 10 c-14 5 -27 9 -28 9 -2 0 -9 -18 -16 -40z m-40 -96 c0
-23 -28 -84 -39 -84 -44 0 -55 49 -20 94 17 21 24 24 40 16 10 -6 19 -17 19
-26z"/>
<path d="M89 658 c-11 -20 -6 -27 51 -82 62 -58 64 -58 74 -36 9 19 5 27 -26
56 l-37 33 51 3 c42 2 52 7 59 26 8 22 7 22 -76 22 -77 0 -85 -2 -96 -22z"/>
<path d="M530 645 c-11 -13 -11 -19 3 -32 21 -21 49 -9 45 19 -4 28 -30 35
-48 13z"/>
<path d="M499 563 c-6 -16 -22 -58 -34 -95 l-24 -68 25 -6 c14 -4 26 -5 28 -3
2 2 17 42 35 89 29 79 30 86 14 98 -25 18 -32 15 -44 -15z"/>
<path d="M577 467 c-2 -56 -2 -105 2 -108 3 -4 15 -9 26 -13 16 -5 33 10 84
75 50 64 61 83 50 90 -26 16 -39 9 -75 -41 -20 -27 -37 -50 -37 -50 -1 0 -2
30 -2 66 0 59 -3 67 -21 74 -21 8 -22 5 -27 -93z"/>
<path d="M770 470 c-10 -20 -8 -25 22 -51 18 -15 38 -29 43 -30 6 -1 -14 -5
-44 -8 -44 -5 -55 -10 -62 -28 -8 -22 -7 -23 59 -23 37 0 77 3 89 6 35 9 35
39 -1 70 -17 15 -45 40 -63 56 l-31 30 -12 -22z"/>
</g>
</svg>
